<mxfile host="app.diagrams.net" modified="2024-07-02T07:09:34.665Z" agent="Mozilla/5.0 (Windows NT 10.0; Win64; x64) AppleWebKit/537.36 (KHTML, like Gecko) Chrome/126.0.0.0 Safari/537.36" etag="o303YU2eQJUPM-YdkrmA" version="24.6.4" type="github">
  <diagram name="第 1 页" id="9Cl4ZrbEFjc0RlOfOJ10">
    <mxGraphModel dx="1562" dy="818" grid="1" gridSize="10" guides="1" tooltips="1" connect="1" arrows="1" fold="1" page="1" pageScale="1" pageWidth="827" pageHeight="1169" math="0" shadow="0">
      <root>
        <mxCell id="0" />
        <mxCell id="1" parent="0" />
        <mxCell id="4TSNjrWN1K6IEGj66KQE-5" value="" style="edgeStyle=orthogonalEdgeStyle;rounded=0;orthogonalLoop=1;jettySize=auto;html=1;" edge="1" parent="1" source="4TSNjrWN1K6IEGj66KQE-1" target="4TSNjrWN1K6IEGj66KQE-4">
          <mxGeometry relative="1" as="geometry" />
        </mxCell>
        <mxCell id="4TSNjrWN1K6IEGj66KQE-1" value="开始" style="strokeWidth=2;html=1;shape=mxgraph.flowchart.terminator;whiteSpace=wrap;" vertex="1" parent="1">
          <mxGeometry x="370" y="130" width="100" height="60" as="geometry" />
        </mxCell>
        <mxCell id="4TSNjrWN1K6IEGj66KQE-7" value="" style="edgeStyle=orthogonalEdgeStyle;rounded=0;orthogonalLoop=1;jettySize=auto;html=1;" edge="1" parent="1" source="4TSNjrWN1K6IEGj66KQE-4" target="4TSNjrWN1K6IEGj66KQE-6">
          <mxGeometry relative="1" as="geometry" />
        </mxCell>
        <mxCell id="4TSNjrWN1K6IEGj66KQE-4" value="处理" style="rounded=1;whiteSpace=wrap;html=1;strokeWidth=2;" vertex="1" parent="1">
          <mxGeometry x="360" y="270" width="120" height="60" as="geometry" />
        </mxCell>
        <mxCell id="4TSNjrWN1K6IEGj66KQE-6" value="结束" style="strokeWidth=2;html=1;shape=mxgraph.flowchart.terminator;whiteSpace=wrap;" vertex="1" parent="1">
          <mxGeometry x="370" y="410" width="100" height="60" as="geometry" />
        </mxCell>
      </root>
    </mxGraphModel>
  </diagram>
</mxfile>
